<svg xmlns="http://www.w3.org/2000/svg" width="384.746" height="192.373" viewBox="0 0 384.746 192.373">
  <path id="Icon_awesome-language" data-name="Icon awesome-language" d="M91.437,91.033c-2.1-7.274-4.689-19.959-4.689-19.959h-.3s-2.585,12.685-4.689,19.959l-6.673,22.544h22.9ZM370.318,6.75H201.992V199.123H370.318a14.393,14.393,0,0,0,14.428-14.428V21.178A14.393,14.393,0,0,0,370.318,6.75ZM355.89,78.89a7.235,7.235,0,0,1-7.214,7.214h-6.853c-4.148,14.188-13.045,28.5-25.67,42.021a186.367,186.367,0,0,0,15.69,10.821,7.233,7.233,0,0,1,2.465,9.739l-4.749,8.356a7.236,7.236,0,0,1-10.039,2.585,209.167,209.167,0,0,1-21.281-14.969,212.008,212.008,0,0,1-21.281,14.969,7.236,7.236,0,0,1-10.039-2.585l-4.749-8.356a7.21,7.21,0,0,1,2.525-9.739,171.5,171.5,0,0,0,15.69-10.821,139.5,139.5,0,0,1-12.624-15.45,7.191,7.191,0,0,1,2.224-10.28l3.908-2.345,4.389-2.585A7.27,7.27,0,0,1,287.9,99.51a114.633,114.633,0,0,0,10.46,12.564c8.116-8.537,14.308-17.374,18.035-25.97H247.68a7.235,7.235,0,0,1-7.214-7.214V69.271a7.235,7.235,0,0,1,7.214-7.214h38.475V52.439a7.235,7.235,0,0,1,7.214-7.214h9.619a7.235,7.235,0,0,1,7.214,7.214v9.619h38.475a7.235,7.235,0,0,1,7.214,7.214ZM0,21.178V184.695a14.393,14.393,0,0,0,14.428,14.428H182.754V6.75H14.428A14.393,14.393,0,0,0,0,21.178ZM35.409,151.09,69.976,49.433a7.187,7.187,0,0,1,6.853-4.869H96.367a7.326,7.326,0,0,1,6.853,4.869L137.787,151.09a7.233,7.233,0,0,1-6.853,9.559H117.167a7.214,7.214,0,0,1-6.913-5.17L104.6,136.3H68.413l-5.471,19.117a7.269,7.269,0,0,1-6.913,5.23H42.262a7.259,7.259,0,0,1-6.853-9.559Z" transform="translate(0 -6.75)" fill="#fff"/>
</svg>
